<svg xmlns="http://www.w3.org/2000/svg" viewBox="0 0 512 512" width="512" height="512" role="img" aria-labelledby="title">
  <title id="title">TrustX Owner</title>
  <!--
    Maskable Owner icon. Same contract as icon-maskable.svg: full-bleed
    background (the mask decides the corners) and the mark scaled 1.3x and
    centred so its furthest point lands inside the 204.8px safe radius.
    Recolored to the console indigo so it reads as the Owner app at a
    glance next to the shop icon.
  -->
  <defs>
    <linearGradient id="bg" x1="0" y1="0" x2="1" y2="1">
      <stop offset="0" stop-color="#7c6ff0"/>
      <stop offset="0.55" stop-color="#5b5bd6"/>
      <stop offset="1" stop-color="#4338a8"/>
    </linearGradient>
    <linearGradient id="amber" x1="0" y1="0" x2="1" y2="1">
      <stop offset="0" stop-color="#f5a623"/>
      <stop offset="1" stop-color="#e8921a"/>
    </linearGradient>
  </defs>

  <!-- Full-bleed background: the mask decides the corners. -->
  <rect width="512" height="512" fill="url(#bg)"/>

  <!-- The mark, from logo-owner.svg's 256 grid: scaled 1.3x and centred. -->
  <g transform="translate(256 256) scale(1.3) translate(-128 -128)">
    <rect x="8" y="8" width="240" height="240" rx="56" fill="rgba(255,255,255,0.10)"/>
    <path d="M46 72c22-8 46-8 68 0v112c-22-8-46-8-68 0V72z" fill="none" stroke="rgba(255,255,255,0.92)" stroke-width="12" stroke-linejoin="round"/>
    <path d="M210 72c-22-8-46-8-68 0v112c22-8 46-8 68 0V72z" fill="none" stroke="rgba(255,255,255,0.92)" stroke-width="12" stroke-linejoin="round"/>
    <path d="M114 72v112" stroke="rgba(255,255,255,0.92)" stroke-width="12" stroke-linecap="round"/>
    <path d="M138 92c18-3 33 7 33 22 0 13-13 21-33 21h-6l12 27" fill="none" stroke="url(#amber)" stroke-width="11" stroke-linecap="round" stroke-linejoin="round"/>
    <path d="M126 116h38" stroke="url(#amber)" stroke-width="11" stroke-linecap="round"/>
    <circle cx="208" cy="216" r="12" fill="rgba(255,255,255,0.18)"/>
    <circle cx="208" cy="216" r="6" fill="rgba(245,166,35,0.95)"/>
  </g>
</svg>
